<svg class="Icon_Icon__qPZ8O Icon_large__76ZXR" data-testid="icon-utility-search-svg" width="0.9333333333333333em" height="1em" viewBox="0 0 14 15" fill="none" xmlns="http://www.w3.org/2000/svg" aria-hidden="true" focusable="false"><path d="M10.5 6.4375C10.5 4.74219 9.57031 3.15625 8.09375 2.28125C6.58984 1.43359 4.75781 1.43359 3.28125 2.28125C1.77734 3.15625 0.875 4.74219 0.875 6.4375C0.875 8.16016 1.77734 9.74609 3.28125 10.6211C4.75781 11.4688 6.58984 11.4688 8.09375 10.6211C9.57031 9.74609 10.5 8.16016 10.5 6.4375ZM9.37891 10.7578C8.39453 11.6328 7.08203 12.125 5.6875 12.125C2.54297 12.125 0 9.58203 0 6.4375C0 3.32031 2.54297 0.75 5.6875 0.75C8.80469 0.75 11.375 3.32031 11.375 6.4375C11.375 7.85938 10.8555 9.14453 10.0078 10.1562L13.9453 14.0938L13.3164 14.7227L9.37891 10.7578Z" fill="#1B1D1F"></path></svg>