<svg class="Icon_Icon__qPZ8O Icon_large__76ZXR" data-testid="icon-home-search-svg" width="2.0714285714285716em" height="1em" viewBox="0 0 29 14" fill="none" xmlns="http://www.w3.org/2000/svg"><path d="M0 2H12.7273V2.90909H0V2ZM0 6.54545H10.7273V7.45455H0V6.54545ZM12.7273 11.0909V12H0V11.0909H12.7273Z" fill="#1B1D1F"></path><path d="M25.2685 5.70117C25.2685 4.00586 24.3351 2.41992 22.8528 1.54492C21.343 0.697266 19.5038 0.697266 18.0214 1.54492C16.5116 2.41992 15.6057 4.00586 15.6057 5.70117C15.6057 7.42383 16.5116 9.00977 18.0214 9.88477C19.5038 10.7324 21.343 10.7324 22.8528 9.88477C24.3351 9.00977 25.2685 7.42383 25.2685 5.70117ZM24.143 10.0215C23.1547 10.8965 21.8371 11.3887 20.4371 11.3887C17.2802 11.3887 14.7273 8.8457 14.7273 5.70117C14.7273 2.58398 17.2802 0.0136719 20.4371 0.0136719C23.5665 0.0136719 26.1469 2.58398 26.1469 5.70117C26.1469 7.12305 25.6253 8.4082 24.7744 9.41992L28.7273 13.3574L28.0959 13.9863L24.143 10.0215Z" fill="#1B1D1F"></path></svg>