<svg class="Icon_Icon__qPZ8O Icon_large__76ZXR" data-testid="icon-globe-svg" width="1.0666666666666667em" height="1em" viewBox="0 0 16 15" fill="none" xmlns="http://www.w3.org/2000/svg" aria-hidden="true" focusable="false"><path d="M6.87891 13.793C6.19531 13.0547 5.34766 11.9336 4.88281 10.375H2.44922C3.26953 12.125 4.91016 13.4375 6.87891 13.793ZM6.93359 12.5078C7.31641 13.0273 7.69922 13.4102 8 13.6562C8.27344 13.4102 8.65625 13.0273 9.03906 12.5078C9.44922 11.9609 9.88672 11.25 10.1875 10.4023H5.78516C6.08594 11.25 6.52344 11.9609 6.93359 12.5078ZM5.375 7.75C5.375 8.40625 5.42969 8.98047 5.53906 9.5H10.4336C10.543 8.98047 10.625 8.40625 10.625 7.75C10.625 7.12109 10.543 6.54688 10.4336 6H5.53906C5.42969 6.54688 5.375 7.12109 5.375 7.75ZM4.66406 6H2.12109C1.95703 6.57422 1.875 7.14844 1.875 7.75C1.875 8.37891 1.95703 8.95312 2.12109 9.5H4.66406C4.55469 8.98047 4.5 8.37891 4.5 7.75C4.5 7.14844 4.55469 6.54688 4.66406 6ZM5.78516 5.125H10.1875C9.88672 4.27734 9.44922 3.56641 9.03906 3.01953C8.65625 2.5 8.27344 2.11719 8 1.87109C7.69922 2.11719 7.31641 2.5 6.93359 3.01953C6.52344 3.56641 6.08594 4.27734 5.78516 5.125ZM11.3086 6C11.418 6.54688 11.5 7.14844 11.5 7.75C11.5 8.37891 11.418 8.98047 11.3086 9.5H13.8516C14.0156 8.95312 14.125 8.37891 14.125 7.75C14.125 7.14844 14.0156 6.57422 13.8516 6H11.3086ZM13.5234 5.125C12.7031 3.40234 11.0625 2.08984 9.12109 1.73438C9.80469 2.47266 10.625 3.59375 11.0898 5.125H13.5234ZM4.88281 5.125C5.34766 3.59375 6.19531 2.47266 6.87891 1.73438C4.91016 2.08984 3.26953 3.40234 2.44922 5.125H4.88281ZM9.09375 13.793C11.0625 13.4375 12.7031 12.125 13.5234 10.375H11.0898C10.625 11.9336 9.77734 13.0547 9.09375 13.793ZM8 14.75C5.48438 14.75 3.1875 13.4375 1.92969 11.25C0.671875 9.08984 0.671875 6.4375 1.92969 4.25C3.1875 2.08984 5.48438 0.75 8 0.75C10.4883 0.75 12.7852 2.08984 14.043 4.25C15.3008 6.4375 15.3008 9.08984 14.043 11.25C12.7852 13.4375 10.4883 14.75 8 14.75Z" fill="#1B1D1F"></path></svg>