<svg class="IconBadgeFilled Icon_Icon__qPZ8O Icon_large__76ZXR" data-testid="icon-utility-basket-svg" width="0.8666666666666667em" height="1em" viewBox="0 0 13 15" fill="none" xmlns="http://www.w3.org/2000/svg"><path d="M4.375 3.375V4.25H7.875V3.375C7.875 2.41797 7.08203 1.625 6.125 1.625C5.14062 1.625 4.375 2.41797 4.375 3.375ZM3.5 5.125H0.875V13.875H11.375V5.125H8.75V7.3125V7.75H7.875V7.3125V5.125H4.375V7.3125V7.75H3.5V7.3125V5.125ZM3.5 4.25V3.375C3.5 1.92578 4.67578 0.75 6.125 0.75C7.57422 0.75 8.75 1.92578 8.75 3.375V4.25H11.375H12.25V5.125V13.875V14.75H11.375H0.875H0V13.875V5.125V4.25H0.875H3.5Z" fill="#1B1D1F"></path></svg>