<svg class="HeaderAccount_IconUtilityUser___BtGR Icon_Icon__qPZ8O Icon_large__76ZXR" data-testid="icon-utility-user-svg" width="0.8666666666666667em" height="1em" viewBox="0 0 13 15" fill="none" xmlns="http://www.w3.org/2000/svg"><path d="M8.75 4.25C8.75 3.32031 8.23047 2.47266 7.4375 1.98047C6.61719 1.51562 5.60547 1.51562 4.8125 1.98047C3.99219 2.47266 3.5 3.32031 3.5 4.25C3.5 5.20703 3.99219 6.05469 4.8125 6.54688C5.60547 7.01172 6.61719 7.01172 7.4375 6.54688C8.23047 6.05469 8.75 5.20703 8.75 4.25ZM2.625 4.25C2.625 3.01953 3.28125 1.87109 4.375 1.24219C5.44141 0.613281 6.78125 0.613281 7.875 1.24219C8.94141 1.87109 9.625 3.01953 9.625 4.25C9.625 5.50781 8.94141 6.65625 7.875 7.28516C6.78125 7.91406 5.44141 7.91406 4.375 7.28516C3.28125 6.65625 2.625 5.50781 2.625 4.25ZM1.17578 13.875H11.0469L9.84375 9.9375H2.37891L1.17578 13.875ZM1.75 9.0625H10.5L11.9766 13.875L12.25 14.75H11.3203H0.902344H0L0.246094 13.875L1.75 9.0625Z" fill="#1B1D1F"></path></svg>