<svg width="20" height="20" viewBox="0 0 20 20" fill="none" xmlns="http://www.w3.org/2000/svg">
<g id="icons/basic/Social/Instagram">
<path id="Shape" d="M9.99993 3.44349C12.1354 3.44349 12.3883 3.45168 13.2317 3.49015C14.0114 3.52574 14.4349 3.65599 14.7167 3.76552C15.0641 3.89373 15.3783 4.09815 15.6363 4.36377C15.9019 4.62174 16.1063 4.93596 16.2345 5.28333C16.344 5.56514 16.4743 5.9886 16.5099 6.76834C16.5483 7.61168 16.5565 7.8646 16.5565 10.0001C16.5565 12.1356 16.5483 12.3884 16.5099 13.2318C16.4743 14.0116 16.344 14.435 16.2345 14.7169C15.9655 15.4143 15.4142 15.9656 14.7167 16.2347C14.4349 16.3442 14.0114 16.4745 13.2317 16.51C12.3885 16.5485 12.1356 16.5567 9.99993 16.5567C7.86428 16.5567 7.61146 16.5485 6.76819 16.51C5.98844 16.4744 5.56501 16.3442 5.28317 16.2347C4.9358 16.1065 4.62158 15.902 4.36362 15.6364C4.098 15.3784 3.89357 15.0642 3.76536 14.7169C3.65584 14.435 3.52555 14.0116 3.49 13.2318C3.45152 12.3885 3.44336 12.1356 3.44336 10.0001C3.44336 7.8646 3.45152 7.61174 3.49 6.76834C3.52558 5.9886 3.65584 5.56517 3.76536 5.28333C3.89358 4.93594 4.09803 4.62171 4.36368 4.36374C4.62165 4.09812 4.93587 3.89369 5.28323 3.76549C5.56504 3.65596 5.98851 3.52568 6.76825 3.49012C7.61158 3.45164 7.8645 3.44349 10 3.44349H9.99993ZM10 2.0025C7.828 2.0025 7.55555 2.01171 6.70266 2.05063C5.85139 2.08949 5.27006 2.22466 4.76136 2.42238C4.22773 2.62319 3.74432 2.93799 3.34485 3.34482C2.93793 3.74427 2.62304 4.22767 2.42216 4.76133C2.2246 5.27006 2.08943 5.85139 2.05073 6.70266C2.01165 7.55555 2.00244 7.82799 2.00244 9.99999C2.00244 12.172 2.01165 12.4444 2.05073 13.2973C2.08958 14.1486 2.22476 14.7299 2.42247 15.2386C2.62329 15.7723 2.93809 16.2557 3.34492 16.6551C3.74439 17.062 4.22779 17.3768 4.76143 17.5776C5.27016 17.7753 5.85149 17.9105 6.70273 17.9493C7.55574 17.9882 7.82809 17.9975 10.0001 17.9975C12.172 17.9975 12.4445 17.9882 13.2974 17.9493C14.1487 17.9105 14.73 17.7753 15.2387 17.5776C16.3129 17.1621 17.1622 16.3129 17.5776 15.2386C17.7754 14.7299 17.9105 14.1486 17.9494 13.2973C17.9883 12.4443 17.9975 12.172 17.9975 9.99999C17.9975 7.82803 17.9883 7.55555 17.9494 6.70266C17.9105 5.85139 17.7754 5.27006 17.5776 4.76136C17.3768 4.22773 17.062 3.74432 16.6552 3.34485C16.2557 2.93794 15.7723 2.62307 15.2386 2.42222C14.7299 2.22466 14.1485 2.08949 13.2973 2.05079C12.4444 2.01171 12.1719 2.0025 9.99993 2.0025H10Z" fill="#000C2D"/>
<path id="Shape_2" d="M9.99989 5.89319C7.73176 5.89319 5.89307 7.73188 5.89307 10C5.89307 12.2682 7.73176 14.1068 9.99989 14.1068C12.268 14.1068 14.1067 12.2682 14.1067 10C14.1067 7.73188 12.268 5.89319 9.99989 5.89319ZM9.99989 12.6658C8.52761 12.6658 7.33412 11.4723 7.33412 9.99999C7.33412 8.52771 8.52765 7.3342 9.99993 7.3342C11.4722 7.3342 12.6657 8.52773 12.6657 10C12.6657 11.4723 11.4722 12.6658 9.99989 12.6658Z" fill="#000C2D"/>
<path id="Oval" d="M14.269 6.7309C14.8213 6.7309 15.269 6.28318 15.269 5.7309C15.269 5.17861 14.8213 4.7309 14.269 4.7309C13.7168 4.7309 13.269 5.17861 13.269 5.7309C13.269 6.28318 13.7168 6.7309 14.269 6.7309Z" fill="#000C2D"/>
</g>
</svg>
