<svg width="20" height="20" viewBox="0 0 20 20" fill="none" xmlns="http://www.w3.org/2000/svg">
<g id="icons/basic/Social/Youtube">
<path id="Combined Shape" d="M10.5344 3C10.5457 3.00002 10.5599 3.00004 10.5766 3.00008L10.8961 3.0014C12.2964 3.00941 16.9983 3.06203 18.3252 3.40783C19.1819 3.62744 19.8573 4.27061 20.088 5.08633C20.4774 6.4411 20.4992 9.13121 20.5 9.60913L20.4999 9.6915C20.4999 9.69739 20.4999 9.70616 20.4998 9.71766L20.4991 9.81829C20.4935 10.4302 20.4484 12.9592 20.088 14.2632C19.8573 15.0789 19.1819 15.722 18.3252 15.9417C16.9302 16.2912 11.8052 16.3292 10.7076 16.3333L10.2925 16.3333C9.73161 16.3311 8.11653 16.3197 6.48488 16.2602L6.01914 16.2419C4.62595 16.1827 3.29318 16.0856 2.67431 15.926C1.81763 15.7064 1.14217 15.0632 0.911526 14.2475C0.538273 12.9112 0.503281 10.2349 0.5 9.7449V9.58928C0.503281 9.10153 0.538273 6.43687 0.911526 5.08633C1.14217 4.27061 1.83411 3.61176 2.67431 3.39214C3.28674 3.23868 4.6181 3.14527 6.01198 3.08841L6.47802 3.07078C7.95544 3.01903 9.42126 3.0051 10.1035 3.00135L10.4229 3.00008C10.4397 3.00004 10.4538 3.00002 10.4652 3L10.5344 3ZM8.50633 6.81189V12.5219L13.7123 9.6669L8.50633 6.81189Z" fill="#000C2D"/>
</g>
</svg>
