<svg xmlns="http://www.w3.org/2000/svg" width="20" height="20" viewBox="0 0 20 20" fill="none">
  <path d="M10 2C14.4176 2 18 5.58243 18 10C18 14.4176 14.4176 18 10 18C8.94233 18 7.93253 17.7946 7.0083 17.4216L6.94464 17.4667C8.25007 16.5855 8.68829 14.8955 9.0481 13.1332C9.70312 13.5037 10.0537 13.8923 10.8886 13.9511C13.97 14.1725 15.6906 11.0817 15.2708 8.22579C14.8926 5.69528 12.1894 4.40743 9.31103 4.71019C7.03228 4.94969 4.76276 6.66682 4.6705 9.12502C4.61053 10.6253 5.25172 11.7504 6.78318 12.0667C6.95847 11.3573 6.99076 10.9732 6.99076 10.9732C6.99076 10.9732 6.31729 10.3406 6.24809 9.9384C5.68533 6.70297 10.2474 4.49329 12.6415 6.75267C14.2929 8.32069 13.2043 13.1422 10.538 12.6406C7.98253 12.1616 11.7881 8.3252 9.74925 7.57057C8.09323 6.95602 7.21218 9.44586 7.99636 10.6795C7.53947 12.7831 6.56215 14.767 6.93355 17.3909C6.95909 17.4016 6.98367 17.4117 7.0083 17.4216L6.94464 17.4667C6.94082 17.4413 6.93712 17.4161 6.93355 17.3909C4.03771 16.1884 2 13.3317 2 10C2 5.58243 5.58243 2 10 2Z" fill="#000C2D"/>
</svg>