<svg xmlns="http://www.w3.org/2000/svg" width="20" height="20" viewBox="0 0 20 20" fill="none">
  <path d="M13.0735 11.7964H15.1962L15.5141 9.37872H13.0735V7.8352C13.0735 7.13523 13.2716 6.65822 14.2949 6.65822L15.6 6.65766V4.49529C15.3743 4.46583 14.5995 4.4 13.6982 4.4C11.8165 4.4 10.5282 5.52669 10.5282 7.59576V9.37872H8.4V11.7964H10.5282V18H2.88308C2.39522 18 2 17.6045 2 17.1169V2.88307C2 2.39528 2.39529 2 2.88308 2H17.117C17.6047 2 18 2.39528 18 2.88307V17.1169C18 17.6046 17.6046 18 17.117 18H13.0735V11.7964Z" fill="#000C2D"/>
</svg>