
<svg width="20" height="20" viewBox="0 0 20 20" fill="none" xmlns="http://www.w3.org/2000/svg">
<g id="icon-tiktok">
<path id="Subtract" fill-rule="evenodd" clip-rule="evenodd" d="M13.0898 2.77C13.0398 2.52 13.0098 2.27 13.0098 2.01L13.0198 2H10.3998V9.15V13.06C10.3998 14.11 9.70985 15 8.76985 15.31C8.52985 15.39 8.27985 15.43 8.01985 15.43H7.88985C7.49985 15.41 7.12985 15.29 6.80985 15.1C6.11985 14.7 5.65985 13.96 5.64985 13.11C5.62985 11.79 6.69985 10.71 8.01985 10.71C8.27985 10.71 8.53985 10.75 8.76985 10.83V8.17C8.52985 8.13 8.26985 8.11 8.01985 8.11C6.56985 8.11 5.21985 8.72 4.24985 9.8C3.51985 10.62 3.07985 11.66 3.00985 12.76C2.91985 14.2 3.44985 15.57 4.46985 16.58C4.61985 16.73 4.77985 16.86 4.93985 16.99C5.80985 17.66 6.87985 18.03 8.00985 18.03C8.25985 18.03 8.50985 18.01 8.75985 17.97C9.80985 17.81 10.7798 17.33 11.5498 16.57C12.4998 15.64 13.0098 14.41 13.0098 13.09V7.24C13.4598 7.59 13.9498 7.88 14.4798 8.1C15.2998 8.44 16.1698 8.62 17.0598 8.62V6.02C16.1398 6.02 15.2998 5.72 14.6198 5.21C13.8498 4.62 13.2898 3.76 13.0898 2.77Z" fill="#000C2D"/>
</g>
</svg>
