<svg xmlns="http://www.w3.org/2000/svg" width="20" height="20" viewBox="0 0 20 20" fill="none">
  <path d="M13.672 9.41556C13.5972 9.38262 13.5208 9.35063 13.4433 9.32051C13.309 7.04488 11.9542 5.7419 9.67896 5.72872C8.36623 5.72072 7.19093 6.21199 6.45867 7.23169L7.70987 8.01941C8.23034 7.29475 9.04721 7.1404 9.64871 7.1404H9.66922C10.4184 7.14464 10.984 7.34463 11.3496 7.73425C11.6158 8.01847 11.7942 8.41045 11.8824 8.90548C11.2178 8.80195 10.4999 8.76995 9.73178 8.81042C7.56885 8.92477 6.17818 10.0823 6.2715 11.6907C6.31868 12.5071 6.76173 13.2088 7.5186 13.6675C8.15855 14.0553 8.98311 14.2449 9.83946 14.2016C10.9712 14.1452 11.8583 13.749 12.4777 13.0248C12.948 12.4747 13.2454 11.7618 13.3767 10.8639C13.9156 11.1623 14.3151 11.5552 14.5361 12.0276C14.9109 12.8304 14.933 14.1499 13.7597 15.2256C12.7321 16.1681 11.4963 16.5756 9.62922 16.5883C7.55757 16.5742 5.99101 15.9644 4.97262 14.7762C4.01884 13.6638 3.52605 12.0568 3.50759 10C3.52605 7.94318 4.01884 6.33622 4.97262 5.22381C5.99101 4.03565 7.55757 3.4258 9.62922 3.41168C11.7152 3.4258 13.309 4.03847 14.3668 5.23228C14.8853 5.81766 15.276 6.55408 15.5339 7.41239L17 7.05335C16.6877 5.99694 16.1965 5.08641 15.5273 4.33116C14.1715 2.80042 12.189 2.01647 9.63435 2H9.62409C7.07453 2.01647 5.11363 2.80372 3.7968 4.3401C2.62457 5.70708 2.02 7.60955 2 9.99435V10.0056C2.02 12.3904 2.62457 14.2929 3.7968 15.6599C5.11363 17.1963 7.07453 17.984 9.62409 18H9.63435C11.9009 17.9854 13.4987 17.441 14.815 16.234C16.537 14.6553 16.4852 12.6765 15.9175 11.4616C15.5104 10.5906 14.734 9.88283 13.672 9.41556ZM9.75844 12.7923C8.81082 12.8412 7.82576 12.4507 7.77704 11.6145C7.74115 10.9943 8.25803 10.3021 9.8169 10.2198C9.99535 10.2103 10.1707 10.2056 10.3425 10.2056C10.9086 10.2056 11.4383 10.256 11.9198 10.3529C11.7404 12.4112 10.6871 12.7452 9.75844 12.7923Z" fill="#000C2D"/>
</svg>