<svg class="Icon_Icon__qPZ8O Icon_regular__MbCqv" data-testid="brand-logo-svg" width="217" height="12" viewBox="0 0 217 12" fill="none" xmlns="http://www.w3.org/2000/svg"><g clip-path="url(#clip0_25888_6946)"><path d="M0 0.151672V1.64209H4.01141V11.8663H5.69425V1.64209H9.77252V0.151672H0Z" fill="black"></path><path d="M41.4431 0.167969L37.5801 4.97188L33.6926 0.167969H32.106V11.8663H33.7823V2.76397L37.4203 7.28578H37.7301L41.3273 2.76397V11.8663H43.0102V0.167969H41.4431Z" fill="black"></path><path d="M59.5466 0.167969L55.682 4.97188L51.7945 0.167969H50.2095V11.8663H51.8842V2.76397L55.5221 7.28578H55.832L59.4292 2.76397V11.8663H61.1137V0.167969H59.5466Z" fill="black"></path><path d="M75.2514 0.167969L72.0782 4.20058L68.9489 0.167969H66.9253L71.2465 5.67796V11.8663H72.9636V5.67796L77.2849 0.167969H75.2514Z" fill="black"></path><path d="M15.5417 1.71711C14.3579 2.86183 13.7676 4.30659 13.7676 6.05466C13.7676 7.80272 14.3546 9.1741 15.5303 10.3041C16.7044 11.4358 18.1736 12 19.9364 12C21.6991 12 23.3134 11.4358 24.5266 10.3041C25.7399 9.1741 26.3465 7.74565 26.3465 6.02204C26.3465 4.29844 25.7447 2.86183 24.543 1.71711C23.3412 0.572391 21.8361 3.05176e-05 20.0293 3.05176e-05C18.2225 3.05176e-05 16.7272 0.572391 15.5434 1.71711M23.3102 2.8602C24.1826 3.70651 24.6196 4.7485 24.6196 5.9878C24.6196 7.2271 24.1826 8.32453 23.3102 9.179C22.4378 10.0335 21.3485 10.4607 20.0423 10.4607C18.7362 10.4607 17.66 10.0416 16.7973 9.20346C15.9331 8.36693 15.4993 7.31679 15.4993 6.05466C15.4993 4.79253 15.9298 3.68531 16.7924 2.84716C17.6551 2.009 18.7541 1.59155 20.0929 1.59155C21.4317 1.59155 22.4361 2.01389 23.3102 2.8602Z" fill="black"></path><path d="M209.588 11.8663V6.77541H210.024C210.57 6.77541 210.961 6.839 211.193 6.96456C211.425 7.09012 211.684 7.29395 211.972 7.57932C212.259 7.86468 212.576 8.24626 212.921 8.72567L213.482 9.63884L214.001 10.4933L214.327 10.9548C214.376 11.0216 214.41 11.0689 214.428 11.0966L214.939 11.8679H216.931L216.312 11.0298C216.065 10.6955 215.739 10.1949 215.332 9.53122C214.684 8.47618 214.182 7.73586 213.825 7.31189C213.468 6.88792 213.102 6.55201 212.727 6.30741C213.363 6.06281 213.853 5.68939 214.192 5.19367C214.533 4.69632 214.702 4.10765 214.702 3.42767C214.702 2.42808 214.355 1.63558 213.66 1.04854C212.966 0.463135 212.026 0.169617 210.842 0.169617H207.912V11.8679H209.587L209.588 11.8663ZM211.853 1.77581C212.209 1.89811 212.483 2.10847 212.679 2.40851C212.874 2.70692 212.972 3.0412 212.972 3.40973C212.972 3.77826 212.886 4.11744 212.709 4.41095C212.533 4.70447 212.287 4.92298 211.972 5.06811C211.656 5.21324 211.074 5.28662 210.226 5.28662H209.59V1.59155H210.092C210.913 1.59155 211.5 1.65351 211.855 1.77581" fill="black"></path><path d="M129.491 0.167969V5.22626H122.917V0.167969H121.243V11.8663H122.917V6.77539H129.491V11.8663H131.165V0.167969H129.491Z" fill="black"></path><path d="M139.483 0.167969H137.809V11.8663H139.483V0.167969Z" fill="black"></path><path d="M146.071 0.167969V11.8663H153.011V10.3433H147.744V0.167969H146.071Z" fill="black"></path><path d="M158.384 0.167969V11.8663H160.057V6.41501H164.621V4.92459H160.057V1.65839H164.621V0.167969H158.384Z" fill="black"></path><path d="M172.491 0.167969H170.816V11.8663H172.491V0.167969Z" fill="black"></path><path d="M184.934 7.59562H187.186V10.0334L187.028 10.084C186.096 10.3906 185.295 10.5438 184.625 10.5438C183.245 10.5438 182.118 10.1231 181.241 9.27846C180.364 8.43541 179.927 7.34939 179.927 6.0204C179.927 4.69142 180.364 3.68367 181.241 2.8129C182.118 1.94213 183.195 1.50675 184.473 1.50675C185.846 1.50675 187.23 1.91115 188.626 2.72159V1.01429C187.721 0.634346 186.973 0.373441 186.383 0.229943C185.791 0.0880758 185.164 0.0163269 184.507 0.0163269C182.699 0.0163269 181.194 0.596841 179.994 1.75787C178.793 2.9189 178.193 4.37344 178.193 6.11987C178.193 7.86631 178.772 9.17246 179.932 10.3025C181.089 11.4326 182.639 11.9984 184.576 11.9984C185.993 11.9984 187.423 11.6853 188.863 11.0608V6.10357H184.936V7.59399L184.934 7.59562Z" fill="black"></path><path d="M195.093 0.171234V11.8516H201.885V10.3628H196.768V6.7281H201.557V5.22953H196.768V1.66165H201.725V0.171234H195.093Z" fill="black"></path><path d="M107.106 0.169617H89.5508V3.09501H107.106V0.169617Z" fill="#152342"></path><path d="M107.106 3.095H98.3286V8.94743H107.106V3.095Z" fill="#AE0029"></path><path d="M98.3286 3.095H89.5508V8.94743H98.3286V3.095Z" fill="white"></path><path d="M107.106 8.94742H89.5508V11.8728H107.106V8.94742Z" fill="#152342"></path></g><defs><clipPath id="clip0_25888_6946"><rect width="217" height="12" fill="white"></rect></clipPath></defs></svg>